<?xml version="1.0" encoding="iso-8859-1"?>
<!-- Generator: Adobe Illustrator 19.0.0, SVG Export Plug-In . SVG Version: 6.00 Build 0)  -->
<svg version="1.1" id="Capa_1" xmlns="http://www.w3.org/2000/svg" xmlns:xlink="http://www.w3.org/1999/xlink" x="0px" y="0px"
	 viewBox="0 0 512 512" style="enable-background:new 0 0 512 512;" xml:space="preserve">
<g>
	<g>
		<path d="M447.02,406.313c-4.581-24.784-26.264-43.646-52.353-43.646h-85.333c-17.246,0-32.448,8.363-42.203,21.102l-11.195-28.781
			l7.909-3.164c21.156-8.458,34.823-28.656,34.823-51.438c0-10.042-2.729-19.896-7.896-28.5L182.115,90.813
			c-8.083-13.503-22.208-21.341-37.318-21.616L133.75,40.802C124.104,16.01,100.698,0,74.115,0H32C14.354,0,0,14.354,0,32
			s14.354,32,32,32h42.115l7.661,19.711c-4.97,1.815-9.283,5.12-11.745,9.852c-2.823,5.427-3.188,11.802-1,17.521l98.458,255.99
			c2.073,5.365,6.104,9.594,11.375,11.896c2.75,1.198,5.646,1.792,8.542,1.792c2.677,0,5.365-0.51,7.927-1.531l1.188-0.475
			L213.333,422v10.6C200.642,440,192,453.608,192,469.333C192,492.865,211.135,512,234.667,512c15.725,0,29.333-8.642,36.733-21.333
			h157.232C433.049,503.056,444.779,512,458.667,512s25.617-8.944,30.035-21.333h12.632c5.896,0,10.667-4.771,10.667-10.667
			C512,442.15,483.579,411.121,447.02,406.313z M209.469,327.625c-1.26,0.479-2.563,0.708-3.833,0.708
			c-4.281,0-8.323-2.594-9.958-6.833l-36.052-93.74c-2.115-5.5,0.635-11.677,6.125-13.792c5.49-2.104,11.677,0.625,13.792,6.125
			l36.052,93.74C217.708,319.333,214.958,325.51,209.469,327.625z"/>
	</g>
</g>
<g>
</g>
<g>
</g>
<g>
</g>
<g>
</g>
<g>
</g>
<g>
</g>
<g>
</g>
<g>
</g>
<g>
</g>
<g>
</g>
<g>
</g>
<g>
</g>
<g>
</g>
<g>
</g>
<g>
</g>
</svg>
